<svg xmlns="http://www.w3.org/2000/svg" xmlns:xlink="http://www.w3.org/1999/xlink" width="200" zoomAndPan="magnify" viewBox="0 0 150 37.5" height="50" preserveAspectRatio="xMidYMid meet" version="1.0"><defs><g/><clipPath id="9039270537"><path d="M 2.667969 8.628906 L 23.390625 8.628906 L 23.390625 28.613281 L 2.667969 28.613281 Z M 2.667969 8.628906 " clip-rule="nonzero"/></clipPath></defs><g fill="#ffffff" fill-opacity="1"><g transform="translate(23.451846, 27.384868)"><g><path d="M 15.625 -9.375 C 16.644531 -9.019531 17.445312 -8.457031 18.03125 -7.6875 C 18.613281 -6.925781 18.90625 -6.007812 18.90625 -4.9375 C 18.90625 -3.351562 18.269531 -2.132812 17 -1.28125 C 15.738281 -0.425781 13.910156 0 11.515625 0 L 1.796875 0 L 1.796875 -17.984375 L 11 -17.984375 C 13.289062 -17.984375 15.035156 -17.554688 16.234375 -16.703125 C 17.429688 -15.859375 18.03125 -14.71875 18.03125 -13.28125 C 18.03125 -12.425781 17.820312 -11.660156 17.40625 -10.984375 C 16.988281 -10.304688 16.394531 -9.769531 15.625 -9.375 Z M 6.828125 -14.3125 L 6.828125 -10.84375 L 10.328125 -10.84375 C 12.035156 -10.84375 12.890625 -11.425781 12.890625 -12.59375 C 12.890625 -13.738281 12.035156 -14.3125 10.328125 -14.3125 Z M 11.09375 -3.671875 C 12.875 -3.671875 13.765625 -4.28125 13.765625 -5.5 C 13.765625 -6.71875 12.875 -7.328125 11.09375 -7.328125 L 6.828125 -7.328125 L 6.828125 -3.671875 Z M 11.09375 -3.671875 "/></g></g></g><g fill="#ffffff" fill-opacity="1"><g transform="translate(43.194631, 27.384868)"><g><path d="M 1.5625 -19.0625 L 6.453125 -19.0625 L 6.453125 0 L 1.5625 0 Z M 1.5625 -19.0625 "/></g></g></g><g fill="#ffffff" fill-opacity="1"><g transform="translate(51.230382, 27.384868)"><g><path d="M 8.546875 0.234375 C 7.054688 0.234375 5.710938 -0.0703125 4.515625 -0.6875 C 3.316406 -1.3125 2.378906 -2.171875 1.703125 -3.265625 C 1.023438 -4.359375 0.6875 -5.597656 0.6875 -6.984375 C 0.6875 -8.359375 1.023438 -9.59375 1.703125 -10.6875 C 2.378906 -11.78125 3.3125 -12.628906 4.5 -13.234375 C 5.695312 -13.847656 7.046875 -14.15625 8.546875 -14.15625 C 10.054688 -14.15625 11.410156 -13.847656 12.609375 -13.234375 C 13.804688 -12.628906 14.738281 -11.78125 15.40625 -10.6875 C 16.082031 -9.601562 16.421875 -8.367188 16.421875 -6.984375 C 16.421875 -5.597656 16.082031 -4.359375 15.40625 -3.265625 C 14.738281 -2.171875 13.804688 -1.3125 12.609375 -0.6875 C 11.410156 -0.0703125 10.054688 0.234375 8.546875 0.234375 Z M 8.546875 -3.640625 C 9.410156 -3.640625 10.113281 -3.9375 10.65625 -4.53125 C 11.207031 -5.125 11.484375 -5.941406 11.484375 -6.984375 C 11.484375 -8.015625 11.207031 -8.820312 10.65625 -9.40625 C 10.113281 -9.988281 9.410156 -10.28125 8.546875 -10.28125 C 7.691406 -10.28125 6.988281 -9.988281 6.4375 -9.40625 C 5.894531 -8.820312 5.625 -8.015625 5.625 -6.984375 C 5.625 -5.941406 5.894531 -5.125 6.4375 -4.53125 C 6.988281 -3.9375 7.691406 -3.640625 8.546875 -3.640625 Z M 8.546875 -3.640625 "/></g></g></g><g fill="#ffffff" fill-opacity="1"><g transform="translate(68.328815, 27.384868)"><g><path d="M 16.546875 -13.921875 L 16.546875 -2.546875 C 16.546875 0.0351562 15.84375 1.972656 14.4375 3.265625 C 13.03125 4.566406 11.007812 5.21875 8.375 5.21875 C 7 5.21875 5.710938 5.0625 4.515625 4.75 C 3.316406 4.445312 2.300781 3.992188 1.46875 3.390625 L 3.234375 -0.03125 C 3.796875 0.4375 4.507812 0.800781 5.375 1.0625 C 6.238281 1.332031 7.09375 1.46875 7.9375 1.46875 C 9.21875 1.46875 10.15625 1.179688 10.75 0.609375 C 11.351562 0.046875 11.65625 -0.789062 11.65625 -1.90625 L 11.65625 -2.359375 C 10.71875 -1.265625 9.34375 -0.71875 7.53125 -0.71875 C 6.289062 -0.71875 5.148438 -0.992188 4.109375 -1.546875 C 3.066406 -2.109375 2.234375 -2.898438 1.609375 -3.921875 C 0.992188 -4.941406 0.6875 -6.117188 0.6875 -7.453125 C 0.6875 -8.765625 0.992188 -9.929688 1.609375 -10.953125 C 2.234375 -11.972656 3.066406 -12.757812 4.109375 -13.3125 C 5.148438 -13.875 6.289062 -14.15625 7.53125 -14.15625 C 9.507812 -14.15625 10.960938 -13.515625 11.890625 -12.234375 L 11.890625 -13.921875 Z M 8.6875 -4.59375 C 9.5625 -4.59375 10.285156 -4.859375 10.859375 -5.390625 C 11.429688 -5.921875 11.71875 -6.609375 11.71875 -7.453125 C 11.71875 -8.285156 11.429688 -8.960938 10.859375 -9.484375 C 10.296875 -10.015625 9.570312 -10.28125 8.6875 -10.28125 C 7.789062 -10.28125 7.054688 -10.015625 6.484375 -9.484375 C 5.910156 -8.960938 5.625 -8.285156 5.625 -7.453125 C 5.625 -6.609375 5.914062 -5.921875 6.5 -5.390625 C 7.082031 -4.859375 7.8125 -4.59375 8.6875 -4.59375 Z M 8.6875 -4.59375 "/></g></g></g><g fill="#ffffff" fill-opacity="1"><g transform="translate(86.428507, 27.384868)"><g><path d="M 1.796875 -17.984375 L 10.296875 -17.984375 C 12.265625 -17.984375 14.007812 -17.613281 15.53125 -16.875 C 17.0625 -16.132812 18.242188 -15.085938 19.078125 -13.734375 C 19.921875 -12.390625 20.34375 -10.804688 20.34375 -8.984375 C 20.34375 -7.171875 19.921875 -5.585938 19.078125 -4.234375 C 18.242188 -2.878906 17.0625 -1.832031 15.53125 -1.09375 C 14.007812 -0.363281 12.265625 0 10.296875 0 L 1.796875 0 Z M 10.09375 -4.0625 C 11.632812 -4.0625 12.867188 -4.492188 13.796875 -5.359375 C 14.734375 -6.234375 15.203125 -7.441406 15.203125 -8.984375 C 15.203125 -10.523438 14.734375 -11.734375 13.796875 -12.609375 C 12.867188 -13.484375 11.632812 -13.921875 10.09375 -13.921875 L 6.890625 -13.921875 L 6.890625 -4.0625 Z M 10.09375 -4.0625 "/></g></g></g><g fill="#ffffff" fill-opacity="1"><g transform="translate(107.634672, 27.384868)"><g><path d="M 15.796875 -6.9375 C 15.796875 -6.90625 15.769531 -6.503906 15.71875 -5.734375 L 5.59375 -5.734375 C 5.800781 -5.015625 6.203125 -4.460938 6.796875 -4.078125 C 7.390625 -3.691406 8.128906 -3.5 9.015625 -3.5 C 9.679688 -3.5 10.257812 -3.59375 10.75 -3.78125 C 11.238281 -3.96875 11.734375 -4.273438 12.234375 -4.703125 L 14.796875 -2.03125 C 13.441406 -0.519531 11.460938 0.234375 8.859375 0.234375 C 7.234375 0.234375 5.800781 -0.0703125 4.5625 -0.6875 C 3.332031 -1.3125 2.378906 -2.171875 1.703125 -3.265625 C 1.023438 -4.359375 0.6875 -5.597656 0.6875 -6.984375 C 0.6875 -8.359375 1.015625 -9.585938 1.671875 -10.671875 C 2.335938 -11.753906 3.253906 -12.601562 4.421875 -13.21875 C 5.585938 -13.84375 6.894531 -14.15625 8.34375 -14.15625 C 9.726562 -14.15625 10.984375 -13.867188 12.109375 -13.296875 C 13.242188 -12.722656 14.140625 -11.890625 14.796875 -10.796875 C 15.460938 -9.710938 15.796875 -8.425781 15.796875 -6.9375 Z M 8.375 -10.6875 C 7.625 -10.6875 6.992188 -10.472656 6.484375 -10.046875 C 5.984375 -9.617188 5.660156 -9.035156 5.515625 -8.296875 L 11.21875 -8.296875 C 11.082031 -9.035156 10.757812 -9.617188 10.25 -10.046875 C 9.75 -10.472656 9.125 -10.6875 8.375 -10.6875 Z M 8.375 -10.6875 "/></g></g></g><g fill="#ffffff" fill-opacity="1"><g transform="translate(124.116953, 27.384868)"><g><path d="M 16.234375 -13.921875 L 10.484375 0 L 5.453125 0 L -0.28125 -13.921875 L 4.71875 -13.921875 L 8.0625 -5.421875 L 11.578125 -13.921875 Z M 16.234375 -13.921875 "/></g></g></g><g fill="#00ff29" fill-opacity="1"><g transform="translate(140.034129, 27.384868)"><g><path d="M 3.625 0.234375 C 2.800781 0.234375 2.101562 -0.0351562 1.53125 -0.578125 C 0.96875 -1.128906 0.6875 -1.828125 0.6875 -2.671875 C 0.6875 -3.523438 0.960938 -4.21875 1.515625 -4.75 C 2.078125 -5.28125 2.78125 -5.546875 3.625 -5.546875 C 4.476562 -5.546875 5.175781 -5.28125 5.71875 -4.75 C 6.269531 -4.21875 6.546875 -3.523438 6.546875 -2.671875 C 6.546875 -1.828125 6.265625 -1.128906 5.703125 -0.578125 C 5.148438 -0.0351562 4.457031 0.234375 3.625 0.234375 Z M 3.625 0.234375 "/></g></g></g><g clip-path="url(#9039270537)"><path fill="#ffffff" d="M 23.386719 26.507812 C 23.382812 26.496094 23.386719 26.484375 23.382812 26.472656 L 22.332031 21.601562 L 22.332031 10.003906 C 22.332031 9.261719 21.738281 8.65625 21.003906 8.65625 L 5.058594 8.65625 C 4.324219 8.65625 3.726562 9.261719 3.726562 10.003906 L 3.726562 21.601562 L 2.675781 26.472656 C 2.671875 26.484375 2.675781 26.496094 2.675781 26.507812 C 2.675781 26.519531 2.667969 26.53125 2.667969 26.542969 L 2.667969 27.867188 C 2.667969 28.246094 2.972656 28.550781 3.34375 28.550781 L 22.71875 28.550781 C 23.089844 28.550781 23.390625 28.246094 23.390625 27.867188 L 23.390625 26.542969 C 23.390625 26.53125 23.386719 26.519531 23.386719 26.507812 Z M 22.644531 26.207031 L 15.242188 26.207031 L 15.035156 25.199219 L 20.601562 25.199219 C 20.605469 25.199219 20.605469 25.199219 20.609375 25.199219 C 20.894531 25.199219 21.1875 25.195312 21.355469 24.984375 C 21.441406 24.878906 21.472656 24.738281 21.441406 24.597656 L 20.890625 21.96875 L 21.730469 21.96875 Z M 3.417969 26.207031 L 4.332031 21.972656 L 5.195312 21.972656 L 4.644531 24.597656 C 4.613281 24.738281 4.644531 24.878906 4.730469 24.984375 C 4.898438 25.195312 5.191406 25.199219 5.484375 25.199219 C 5.488281 25.199219 5.492188 25.199219 5.496094 25.199219 L 10.886719 25.199219 L 10.675781 26.207031 Z M 10.410156 21.972656 L 10.199219 22.914062 L 8.355469 22.914062 L 8.664062 21.972656 Z M 12.710938 21.972656 L 12.710938 22.914062 L 10.882812 22.914062 L 11.097656 21.972656 Z M 14.988281 21.96875 L 15.203125 22.914062 L 13.378906 22.914062 L 13.378906 21.972656 Z M 20.742188 24.519531 C 20.691406 24.523438 20.636719 24.523438 20.589844 24.519531 L 18.964844 24.519531 L 18.65625 23.589844 L 20.546875 23.589844 Z M 13.378906 24.519531 L 13.378906 23.589844 L 15.359375 23.589844 L 15.570312 24.519531 Z M 10.515625 24.519531 L 10.730469 23.589844 L 12.710938 23.589844 L 12.710938 24.519531 Z M 7.828125 24.519531 L 8.132812 23.589844 L 10.042969 23.589844 L 9.832031 24.519531 Z M 5.484375 24.519531 C 5.445312 24.519531 5.394531 24.519531 5.34375 24.519531 L 5.539062 23.589844 L 7.429688 23.589844 L 7.121094 24.519531 Z M 16.257812 24.519531 L 16.042969 23.589844 L 17.953125 23.589844 L 18.257812 24.519531 Z M 20.207031 21.96875 L 20.40625 22.914062 L 18.4375 22.914062 L 18.125 21.96875 Z M 17.421875 21.96875 L 17.730469 22.914062 L 15.890625 22.914062 L 15.675781 21.96875 Z M 7.652344 22.914062 L 5.679688 22.914062 L 5.878906 21.972656 L 7.960938 21.972656 Z M 11.570312 25.199219 L 14.351562 25.199219 L 14.5625 26.207031 L 11.359375 26.207031 Z M 5.058594 9.335938 L 21.003906 9.335938 C 21.367188 9.335938 21.664062 9.636719 21.664062 10.003906 L 21.664062 21.289062 L 4.394531 21.296875 L 4.394531 10.003906 C 4.394531 9.636719 4.691406 9.335938 5.058594 9.335938 Z M 22.71875 27.875 L 3.335938 27.867188 L 3.335938 26.882812 L 22.722656 26.882812 Z M 22.71875 27.875 " fill-opacity="1" fill-rule="nonzero"/></g><path fill="#ffffff" d="M 5.847656 20.425781 L 20.242188 20.425781 C 20.546875 20.425781 20.796875 20.171875 20.796875 19.859375 L 20.796875 10.746094 C 20.796875 10.4375 20.546875 10.183594 20.242188 10.183594 L 5.847656 10.183594 C 5.539062 10.183594 5.289062 10.4375 5.289062 10.746094 L 5.289062 19.859375 C 5.289062 20.171875 5.539062 20.425781 5.847656 20.425781 Z M 5.957031 10.859375 L 20.128906 10.859375 L 20.128906 19.746094 L 5.957031 19.746094 Z M 5.957031 10.859375 " fill-opacity="1" fill-rule="nonzero"/><path fill="#ffffff" d="M 19.082031 11.859375 C 18.953125 11.726562 18.738281 11.726562 18.609375 11.859375 L 16.074219 14.429688 C 15.945312 14.5625 15.945312 14.777344 16.074219 14.910156 C 16.140625 14.976562 16.226562 15.007812 16.3125 15.007812 C 16.398438 15.007812 16.484375 14.976562 16.546875 14.910156 L 19.082031 12.339844 C 19.210938 12.207031 19.210938 11.992188 19.082031 11.859375 Z M 19.082031 11.859375 " fill-opacity="1" fill-rule="nonzero"/><path fill="#ffffff" d="M 18.9375 13.820312 L 18.070312 14.703125 C 17.9375 14.835938 17.9375 15.050781 18.070312 15.183594 C 18.132812 15.25 18.21875 15.28125 18.304688 15.28125 C 18.390625 15.28125 18.476562 15.25 18.542969 15.183594 L 19.410156 14.300781 C 19.542969 14.167969 19.542969 13.953125 19.414062 13.820312 C 19.28125 13.6875 19.070312 13.6875 18.9375 13.820312 Z M 18.9375 13.820312 " fill-opacity="1" fill-rule="nonzero"/><path fill="#ffffff" d="M 16.230469 12.933594 L 17.132812 12.019531 C 17.261719 11.886719 17.261719 11.671875 17.132812 11.542969 C 17 11.410156 16.789062 11.410156 16.660156 11.542969 L 15.757812 12.457031 C 15.628906 12.585938 15.628906 12.800781 15.757812 12.933594 C 15.824219 13 15.910156 13.035156 15.996094 13.035156 C 16.082031 13.035156 16.167969 13 16.230469 12.933594 Z M 16.230469 12.933594 " fill-opacity="1" fill-rule="nonzero"/></svg>